# xmcd
#
# Track frame offsets: 
#        150
#        17271
#        34093
#        48722
#        64474
#        79101
#        97633
#        114618
#        131518
#        148141
#        170708
#        188602
#        205729
#        222162
#        238558
#        257878
#        273374
#        293254
#
# Disc length: 4090 seconds
#
# Revision: 0
# Processed by: cddbd v1.5.2PL0 Copyright (c) Steve Scherf et al.
# Submitted via: ExactAudioCopyFreeDBPlugin 1.0
#
DISCID=fe0ff812
DTITLE=Blue System - Best of Blue
DYEAR=2007
DGENRE=Blues
TTITLE0=Blue - All Rise
TTITLE1=Blue - Breathe Easy
TTITLE2=Blue - Guilty
TTITLE3=Blue - One Love
TTITLE4=Blue - Best In Me
TTITLE5=Blue - Curtain Falls
TTITLE6=Blue - U Make Me Wanna
TTITLE7=Elton John - Sorry Seems To Be The Hardest Word
TTITLE8=Craig David - All The Way
TTITLE9=Coldplay - Fix You
TTITLE10=Backstreet Boys - Just Want You To Know
TTITLE11=Busta Rhymes - Don't Cha
TTITLE12=Britney Spears - Someday (I will Understand)
TTITLE13=Sugababes - Push The Button
TTITLE14=Katie Melua - The Closest Thing To Crazy
TTITLE15=Madonna - Hung Up
TTITLE16=Greean Day - Boulevard Of Broken Dream
TTITLE17=Blue - Best of Blue
EXTD=
EXTT0=
EXTT1=
EXTT2=
EXTT3=
EXTT4=
EXTT5=
EXTT6=
EXTT7=
EXTT8=
EXTT9=
EXTT10=
EXTT11=
EXTT12=
EXTT13=
EXTT14=
EXTT15=
EXTT16=
EXTT17=
PLAYORDER=
